PathFileType	4	(X/Y/Z)	s06c0302.trc
DataRate	CameraRate	NumFrames	NumMarkers	Units	OrigDataRate	OrigDataStartFrame	OrigNumFrames
200	200	7	48	mm	200	1250	2000
Frame#	Time	racr			lacr			c7			jug			rlel			rdr			llel			ldr			s2			lic			ric			lasi			rasi			rpsi			lpsi			rgt			lgt			rth1			rth2			rth3			rth4			rlfc			rmfc			rsh1			rsh2			rsh3			rsh4			rlmal			rcal			rtoe			rmt5			lth1			lth2			lth4			lth3			llfc			lmfc			llmal			lcal			lmt5			lsh1			lsh2			lsh3			lsh4			ltoe			SBIKE			LBIKE			RBIKE			
		X1	Y1	Z1	X2	Y2	Z2	X3	Y3	Z3	X4	Y4	Z4	X5	Y5	Z5	X6	Y6	Z6	X7	Y7	Z7	X8	Y8	Z8	X9	Y9	Z9	X10	Y10	Z10	X11	Y11	Z11	X12	Y12	Z12	X13	Y13	Z13	X14	Y14	Z14	X15	Y15	Z15	X16	Y16	Z16	X17	Y17	Z17	X18	Y18	Z18	X19	Y19	Z19	X20	Y20	Z20	X21	Y21	Z21	X22	Y22	Z22	X23	Y23	Z23	X24	Y24	Z24	X25	Y25	Z25	X26	Y26	Z26	X27	Y27	Z27	X28	Y28	Z28	X29	Y29	Z29	X30	Y30	Z30	X31	Y31	Z31	X32	Y32	Z32	X33	Y33	Z33	X34	Y34	Z34	X35	Y35	Z35	X36	Y36	Z36	X37	Y37	Z37	X38	Y38	Z38	X39	Y39	Z39	X40	Y40	Z40	X41	Y41	Z41	X42	Y42	Z42	X43	Y43	Z43	X44	Y44	Z44	X45	Y45	Z45	X46	Y46	Z46	X47	Y47	Z47	X48	Y48	Z48	
1250	6.2500	747.989767	1228.344935	-88.877661	762.781824	1160.619841	-390.910728	783.695703	1267.370875	-245.134272	709.754189	1115.459905	-225.773856	602.400949	1074.043670	81.585600	721.407321	919.361504	-34.496466	538.156273	1035.600733	-493.955618	706.204552	930.247478	-408.136415	202.062475	1233.722322	-215.321447	333.547582	1143.878196	-388.740148	342.225288	1149.901980	-57.327149	344.134537	1094.552067	-348.826897	360.543499	1101.247812	-94.149063	240.844675	1250.348594	-177.094149	236.879107	1251.797523	-238.936162	303.189252	1074.538757	-20.690321	288.462801	1094.982816	-414.029577	367.786927	967.805200	-23.738455	425.419809	899.742315	-34.208065	442.123256	813.954422	-35.887974	451.576389	914.969782	-58.458442	442.186677	712.328353	-53.207684	418.844082	694.818514	-161.708557	343.384114	636.559690	-28.316947	281.336745	578.448091	-52.604819	198.803725	551.202848	-52.922198	295.289300	563.790857	-87.226825	124.287892	524.283506	-58.093267	75.062967	564.947878	-105.544570	146.205285	296.598854	-96.185867	96.974130	385.022894	-30.963042	308.477261	968.785712	-433.178711	359.874092	898.909694	-428.624795	393.715571	912.038771	-419.994680	368.934507	809.932794	-420.696409	385.833209	691.588400	-401.977446	397.116409	674.851497	-288.025045	273.918391	334.979900	-376.248639	200.038142	319.060027	-327.461152	383.232016	248.541802	-404.206847	354.386514	584.866291	-419.419874	349.795859	500.993370	-396.907866	303.287708	426.203768	-391.089816	378.873062	496.617660	-369.713428	469.728660	239.674759	-346.108647	-203.503686	865.622005	-212.740945	-50.846761	79.623217	-411.415943	-50.741781	79.856525	-14.519197	
1251	6.2550	747.217447	1228.505360	-87.583244	763.561663	1160.700391	-389.273378	782.813209	1268.223914	-243.386528	710.371971	1115.293023	-224.327499	601.450619	1073.359629	82.008277	721.279246	919.403150	-34.685840	539.429553	1036.370157	-494.289193	706.526192	929.983988	-407.915226	201.885473	1229.820576	-215.968706	334.694023	1140.129460	-389.082788	341.338998	1150.333982	-57.913802	345.610824	1091.246711	-349.023991	360.167751	1101.376054	-93.950939	240.440188	1248.505948	-179.617840	236.666758	1248.902037	-240.895997	302.409118	1075.076280	-20.183217	288.685386	1088.926675	-413.789224	371.036759	970.959624	-23.408951	430.485098	903.645333	-32.532920	448.319209	818.972802	-33.285134	456.723300	919.871423	-54.974305	450.785511	716.656680	-51.255763	428.258166	700.761449	-160.422235	351.913326	642.306169	-27.268346	288.958054	585.254071	-51.670597	205.953448	559.398845	-52.382553	302.634593	570.428299	-86.509952	130.770922	533.605649	-57.716466	81.569804	574.570976	-105.701146	151.251915	305.886218	-96.546759	102.404988	394.504226	-31.129689	307.400255	962.040323	-432.206427	357.407217	891.278651	-427.123547	391.422127	903.767216	-418.320795	364.753235	802.119180	-418.825746	380.915992	684.799172	-400.091513	389.065782	667.870587	-285.825179	270.309220	326.568320	-376.322435	196.575781	311.648282	-327.772435	378.904317	238.529405	-403.938342	350.071442	577.826668	-417.770057	345.961067	493.565172	-396.172672	299.770285	418.252262	-390.766695	374.700826	489.790078	-369.313270	465.143418	228.344522	-345.751828	-203.533216	865.608495	-212.922457	-50.824941	79.608223	-411.452102	-50.693459	79.901747	-14.559317	
1252	6.2600	745.746808	1228.431007	-86.747009	764.290946	1161.536021	-387.676514	781.996984	1269.261531	-241.458506	710.233171	1115.719968	-223.017159	600.432292	1072.482342	82.693397	721.420331	919.332454	-34.837095	540.853971	1037.578464	-494.594860	706.946828	929.862951	-407.616630	201.434404	1225.904523	-218.699941	336.074191	1136.409685	-389.446430	340.151216	1151.025552	-58.495872	347.248074	1087.846656	-348.919314	359.460458	1101.622682	-93.539683	239.780695	1246.281060	-182.336927	236.431031	1246.110529	-243.516288	301.412913	1076.554880	-19.660485	288.975258	1082.847349	-413.141269	373.696213	974.745446	-21.890186	434.532037	908.431899	-29.667228	454.658060	823.954642	-30.698281	461.666410	925.761856	-50.949513	459.670892	721.120080	-49.285759	438.072125	706.190316	-158.492865	360.875702	647.935664	-26.343274	296.981783	592.022345	-50.717089	213.585042	567.380958	-51.659120	310.462459	577.136354	-85.661922	137.710412	542.467671	-57.295500	88.929202	583.862318	-105.286276	156.857706	314.858882	-96.695508	108.391037	403.576866	-31.203622	306.293313	955.682492	-431.427105	355.147813	883.830430	-425.512437	389.195432	895.879728	-416.763210	360.436624	794.637254	-417.425279	375.826195	677.883564	-398.101605	380.937377	661.328978	-283.711979	266.079904	318.644504	-376.273408	192.573645	304.805134	-327.973619	373.942277	229.031047	-403.674255	345.381653	570.634801	-415.936967	341.633941	485.939004	-394.794785	295.897608	410.594514	-390.312343	369.559541	482.162146	-366.182154	459.909999	217.302497	-345.412639	-203.519896	865.615013	-213.061315	-50.802169	79.610701	-411.490359	-50.669348	79.923453	-14.563037	
1253	6.2650	744.974782	1228.949803	-84.797268	764.990038	1162.917875	-386.131554	781.184307	1270.312354	-239.671959	709.906327	1116.220195	-221.726839	598.883030	1071.285719	82.552994	721.693546	919.316818	-34.808317	542.202733	1039.040638	-494.593243	707.502086	929.828964	-407.214864	201.131256	1221.890258	-220.097978	337.595231	1132.765006	-389.903550	338.585335	1151.726522	-59.185609	349.006664	1084.500662	-348.708518	358.329890	1101.906635	-93.262807	239.010979	1244.014962	-184.787851	236.324581	1243.143761	-246.276904	300.858282	1078.679096	-19.354472	289.735661	1077.141492	-413.014232	376.331959	978.388452	-20.897221	438.311493	913.787578	-26.972856	460.823968	829.445727	-28.054776	465.842775	930.970428	-47.484780	468.877423	725.922407	-47.507329	448.266344	712.102425	-156.776147	369.866723	653.931046	-25.150956	305.390819	598.877461	-49.609206	221.713365	575.151348	-50.785406	318.854262	583.967038	-84.238724	145.146971	551.077309	-56.665638	96.631564	592.703285	-105.110452	163.120430	323.324822	-96.788449	114.970995	412.228450	-31.230277	305.351610	949.757688	-430.798919	352.744833	876.897643	-424.195130	386.952474	888.463785	-415.320479	356.572138	787.938381	-416.141253	370.360393	670.866662	-396.204934	372.950547	654.932989	-281.940761	261.438013	311.271732	-376.141791	188.239202	298.486166	-327.901679	368.510660	219.894195	-403.376238	340.395614	563.653447	-414.701849	337.035702	478.729258	-393.825630	291.610636	403.028723	-389.707758	364.405149	475.556286	-365.140880	454.189294	206.604509	-345.115541	-203.433522	865.656062	-213.105904	-50.768569	79.606118	-411.498327	-50.620561	79.945867	-14.574371	
1254	6.2700	743.410784	1229.002376	-83.293754	765.653308	1165.017535	-384.595250	780.596861	1271.270247	-236.680441	709.233240	1117.047932	-220.496731	597.393671	1070.055412	82.820040	721.991400	919.327518	-34.674835	543.622586	1040.735051	-494.669435	708.128943	929.836597	-406.915421	200.766943	1218.292178	-223.273835	339.264009	1129.200708	-390.295145	336.763929	1152.734889	-59.765321	350.752515	1081.229237	-348.236146	357.569206	1102.670801	-92.711946	238.577658	1242.416226	-188.913286	236.211768	1240.396470	-249.253475	300.678734	1081.179599	-19.353095	290.819135	1071.591348	-412.748439	378.466264	982.222407	-19.171472	442.241264	918.885058	-24.591518	466.715799	835.041096	-25.587297	469.675335	937.131185	-44.076200	478.356970	731.465152	-45.226309	458.614072	717.954640	-154.983543	378.836006	660.108934	-23.867802	313.954759	605.609548	-48.451734	230.094688	582.744790	-49.852553	327.312030	590.794212	-83.129704	152.882428	559.162815	-56.067878	104.551456	601.048252	-104.943272	169.976616	331.494251	-96.962375	122.082819	420.460338	-31.237671	304.544712	944.291104	-430.329453	350.361755	870.412479	-423.231655	384.706851	881.329899	-414.055937	352.544313	781.141197	-415.118765	364.469920	663.882689	-394.335175	364.735988	648.676647	-280.175697	256.333942	304.305624	-375.930657	183.912733	292.317417	-327.074887	362.608801	211.093728	-403.055326	334.575650	556.170022	-412.892057	331.985941	471.846273	-392.927363	286.898479	395.948515	-388.957756	358.904447	468.899445	-363.727296	447.975384	196.158355	-344.661203	-203.361035	865.671088	-213.074919	-50.736108	79.607790	-411.477308	-50.588755	79.942060	-14.553409	
1255	6.2750	742.232444	1229.443163	-81.177182	766.182783	1167.488737	-382.979190	780.070722	1272.347554	-234.176583	708.535837	1117.731727	-219.376410	595.881506	1068.775204	82.922218	722.131661	919.329641	-34.598366	544.990384	1042.732255	-494.452962	708.861360	929.844115	-406.627341	200.644460	1214.382509	-225.271798	340.923183	1125.848902	-390.641969	334.951680	1153.697974	-60.464049	352.505813	1078.078985	-347.516775	356.638068	1103.424896	-92.382382	237.728540	1239.842258	-191.520609	235.893204	1237.395714	-252.138930	300.450120	1083.878442	-19.593260	291.959229	1066.306658	-412.619008	381.027299	985.734508	-18.571750	446.289369	924.009430	-22.475753	472.470695	840.806401	-23.148272	473.467661	942.975827	-40.878401	487.141469	738.023519	-42.861910	468.912464	724.147612	-153.256934	387.665115	666.570284	-22.583220	322.644283	612.410476	-47.169204	238.563944	590.159531	-48.912788	335.542614	597.695408	-81.716838	160.706686	566.989444	-55.526667	112.601852	609.091517	-104.770682	177.466447	339.391640	-97.017350	129.581427	428.333101	-31.283498	303.816626	939.158598	-430.048192	347.935675	864.353811	-422.509188	382.362154	874.410759	-412.956407	347.821982	775.354244	-414.457496	358.070255	657.355626	-393.195135	356.489839	642.430494	-279.242394	250.972124	297.772196	-375.716490	178.609498	287.531382	-327.585719	356.266298	202.700733	-402.682002	328.614655	549.636812	-412.168964	326.416835	465.202621	-392.243078	281.683043	389.066577	-388.306819	353.101540	462.420544	-362.840902	441.247924	186.025582	-344.241613	-203.297015	865.643181	-212.974563	-50.688913	79.594216	-411.431856	-50.535337	79.807002	-14.554367	
1256	6.2800	740.795927	1229.922598	-79.196892	766.687576	1170.156412	-381.357093	779.493485	1273.344639	-231.866196	707.750747	1118.806828	-218.225270	594.466476	1067.532113	83.013069	722.081490	919.343484	-34.617528	546.412568	1045.092355	-494.202456	709.471679	929.834966	-406.507078	200.002249	1210.437421	-227.474959	342.596193	1122.705647	-390.875790	332.933093	1154.920191	-61.308646	354.168479	1075.212271	-346.920028	355.550177	1104.447369	-92.117994	236.589801	1237.183508	-194.277867	235.804067	1234.136847	-254.969788	300.011945	1086.620977	-19.702799	293.147032	1061.192002	-412.574331	383.113962	989.514151	-16.545896	450.450625	928.690465	-20.483389	478.002698	846.780535	-20.670613	477.513717	948.430278	-38.278036	495.500296	745.250621	-40.464264	479.069270	730.312630	-151.195388	396.616051	673.045335	-21.092402	331.320542	619.317688	-45.980319	247.125164	597.585526	-47.964713	344.565285	605.122657	-80.173330	168.721919	574.548290	-54.939604	120.714731	616.586371	-104.593157	185.548722	346.785717	-97.127642	137.542828	435.857016	-31.440024	303.010002	934.360950	-429.932525	345.330176	858.553125	-421.913662	379.879063	867.827383	-412.077294	343.002846	769.590754	-413.853438	351.197821	651.411016	-392.354593	348.303885	636.231640	-278.722131	245.417281	291.729338	-375.424423	173.432731	282.919213	-327.440824	349.439928	194.665032	-402.351045	322.073812	543.511623	-411.655107	320.288294	459.070224	-391.867384	275.879315	382.763279	-387.889500	346.900110	456.577823	-362.393188	434.051403	176.098061	-343.864716	-203.236601	865.635809	-212.877586	-50.679612	79.534557	-411.322386	-50.494092	79.786740	-14.496649	
